<svg xmlns="http://www.w3.org/2000/svg" width="1440" height="900"><path d="M797 389l18-203-253 230z" fill="#94d283" stroke="#94d283" stroke-width="1.51"/><path d="M815 186L612 98l-50 318z" fill="#b0de90" stroke="#b0de90" stroke-width="1.51"/><path d="M209 255l66 176 287-15z" fill="#bde496" stroke="#bde496" stroke-width="1.51"/><path d="M782-93L473-45 612 98z" fill="#cbe9b4" stroke="#cbe9b4" stroke-width="1.51"/><path d="M815 186L782-93 612 98z" fill="#b9e1a0" stroke="#b9e1a0" stroke-width="1.51"/><path d="M209 255l353 161 50-318z" fill="#c7e89a" stroke="#c7e89a" stroke-width="1.51"/><path d="M797 389l283 38-265-241z" fill="#7cc576" stroke="#7cc576" stroke-width="1.51"/><path d="M815 186l272-118L782-93z" fill="#a5d596" stroke="#a5d596" stroke-width="1.51"/><path d="M946 738l134-311-283-38z" fill="#4aac5f" stroke="#4aac5f" stroke-width="1.51"/><path d="M946 738L797 389 541 813z" fill="#4da75d" stroke="#4da75d" stroke-width="1.51"/><path d="M473-45L209 255 612 98z" fill="#e0f2ac" stroke="#e0f2ac" stroke-width="1.51"/><path d="M507-417L376-72l97 27z" fill="#e1f3be" stroke="#e1f3be" stroke-width="1.51"/><path d="M376-72L209 255 473-45z" fill="#ebf7bb" stroke="#ebf7bb" stroke-width="1.51"/><path d="M1080 427l7-359-272 118z" fill="#8ac378" stroke="#8ac378" stroke-width="1.51"/><path d="M541 813l256-424-235 27z" fill="#72c173" stroke="#72c173" stroke-width="1.51"/><path d="M275 431l266 382 21-397z" fill="#87ca7a" stroke="#87ca7a" stroke-width="1.51"/><path d="M946 738l139 35-5-346z" fill="#2b8d49" stroke="#2b8d49" stroke-width="1.51"/><path d="M1481 225L1224-63 1087 68z" fill="#88b07b" stroke="#88b07b" stroke-width="1.51"/><path d="M829 953l256-180-139-35z" fill="#1f7d44" stroke="#1f7d44" stroke-width="1.51"/><path d="M10 662l243 118 22-349z" fill="#99c882" stroke="#99c882" stroke-width="1.51"/><path d="M275 431l-22 349 288 33z" fill="#84b971" stroke="#84b971" stroke-width="1.51"/><path d="M1087 68l137-131-442-30z" fill="#9ac695" stroke="#9ac695" stroke-width="1.51"/><path d="M1344 460L1087 68l-7 359z" fill="#6baa66" stroke="#6baa66" stroke-width="1.51"/><path d="M662 1042l167-89-288-140z" fill="#458552" stroke="#458552" stroke-width="1.51"/><path d="M541 813l288 140 117-215z" fill="#3a8a50" stroke="#3a8a50" stroke-width="1.51"/><path d="M1085 773l259-313-264-33z" fill="#2f914e" stroke="#2f914e" stroke-width="1.51"/><path d="M-93 142l28 208 274-95z" fill="#e7f6bf" stroke="#e7f6bf" stroke-width="1.51"/><path d="M782-93L507-417 473-45z" fill="#d0ebb6" stroke="#d0ebb6" stroke-width="1.51"/><path d="M940-437l-433 20L782-93z" fill="#bae1ac" stroke="#bae1ac" stroke-width="1.51"/><path d="M209 255l-274 95 340 81z" fill="#d1eca8" stroke="#d1eca8" stroke-width="1.51"/><path d="M-93 142l302 113L13-185z" fill="#fcfdd2" stroke="#fcfdd2" stroke-width="1.51"/><path d="M-65 350l75 312 265-231z" fill="#b5dfa1" stroke="#b5dfa1" stroke-width="1.51"/><path d="M1224-63L940-437 782-93z" fill="#9fcc99" stroke="#9fcc99" stroke-width="1.51"/><path d="M365 986l297 56-121-229z" fill="#5c8e5a" stroke="#5c8e5a" stroke-width="1.51"/><path d="M365 986l176-173-288-33z" fill="#6f9c64" stroke="#6f9c64" stroke-width="1.51"/><path d="M13-185l196 440L376-72z" fill="#fafdce" stroke="#fafdce" stroke-width="1.51"/><path d="M8 1053l357-67-112-206z" fill="#7b9b6b" stroke="#7b9b6b" stroke-width="1.51"/><path d="M63-455L13-185 376-72z" fill="#fcfdd3" stroke="#fcfdd3" stroke-width="1.51"/><path d="M1224-63l20-439-304 65z" fill="#92bc8e" stroke="#92bc8e" stroke-width="1.51"/><path d="M1481 225l-128-380-129 92z" fill="#86a885" stroke="#86a885" stroke-width="1.51"/><path d="M1344 460l137-235-394-157z" fill="#71a367" stroke="#71a367" stroke-width="1.51"/><path d="M507-417l-140-97 9 442z" fill="#e5f5c0" stroke="#e5f5c0" stroke-width="1.51"/><path d="M940-437l-573-77 140 97z" fill="#cdeab5" stroke="#cdeab5" stroke-width="1.51"/><path d="M1085 773l332 45-73-358z" fill="#13733b" stroke="#13733b" stroke-width="1.51"/><path d="M1344 460l345-38-208-197z" fill="#538b56" stroke="#538b56" stroke-width="1.51"/><path d="M829 953l318 65-62-245z" fill="#176a3a" stroke="#176a3a" stroke-width="1.51"/><path d="M1169 1246l-22-228-318-65z" fill="#146738" stroke="#146738" stroke-width="1.51"/><path d="M1147 1018l270-200-332-45z" fill="#045e33" stroke="#045e33" stroke-width="1.51"/><path d="M367-514L63-455 376-72z" fill="#f4fbca" stroke="#f4fbca" stroke-width="1.51"/><path d="M-363 91l43 366 227-315z" fill="#ebf7c3" stroke="#ebf7c3" stroke-width="1.51"/><path d="M940-437l304-65-877-12z" fill="#acd9a3" stroke="#acd9a3" stroke-width="1.51"/><path d="M1353-155l-109-347-20 439z" fill="#89b089" stroke="#89b089" stroke-width="1.51"/><path d="M1483-372l-239-130 109 347z" fill="#85a784" stroke="#85a784" stroke-width="1.51"/><path d="M662 1042l147 330 20-419z" fill="#387f4c" stroke="#387f4c" stroke-width="1.51"/><path d="M365 986l248 272 49-216z" fill="#598d58" stroke="#598d58" stroke-width="1.51"/><path d="M190 1367l423-109-248-272z" fill="#6c9561" stroke="#6c9561" stroke-width="1.51"/><path d="M10 662l-2 391 245-273z" fill="#85a97c" stroke="#85a97c" stroke-width="1.51"/><path d="M-65 350l-255 107L10 662z" fill="#b5dea9" stroke="#b5dea9" stroke-width="1.51"/><path d="M-93 142l-227 315 255-107z" fill="#daf0bb" stroke="#daf0bb" stroke-width="1.51"/><path d="M-257-185l164 327L13-185z" fill="#ffffe5" stroke="#ffffe5" stroke-width="1.51"/><path d="M1481 225l183-128-311-252z" fill="#7f9d77" stroke="#7f9d77" stroke-width="1.51"/><path d="M1689 422l-25-325-183 128z" fill="#6b9561" stroke="#6b9561" stroke-width="1.51"/><path d="M-332 806L8 1053l2-391z" fill="#86a885" stroke="#86a885" stroke-width="1.51"/><path d="M-328-351l71 166H13z" fill="#ffffe5" stroke="#ffffe5" stroke-width="1.51"/><path d="M1417 818l272-396-345 38z" fill="#217642" stroke="#217642" stroke-width="1.51"/><path d="M1786-60l-303-312-130 217z" fill="#819e81" stroke="#819e81" stroke-width="1.51"/><path d="M-257-185L-363 91l270 51z" fill="#ffffe2" stroke="#ffffe2" stroke-width="1.51"/><path d="M1147 1018l248 113 22-313z" fill="#00502d" stroke="#00502d" stroke-width="1.51"/><path d="M1417 818l373-70-101-326z" fill="#136637" stroke="#136637" stroke-width="1.51"/><path d="M809 1372l360-126-340-293z" fill="#1e7240" stroke="#1e7240" stroke-width="1.51"/><path d="M606 1655l203-283-196-114z" fill="#458552" stroke="#458552" stroke-width="1.51"/><path d="M613 1258l196 114-147-330z" fill="#438451" stroke="#438451" stroke-width="1.51"/><path d="M1169 1246l226-115-248-113z" fill="#025831" stroke="#025831" stroke-width="1.51"/><path d="M-320 457l-12 349L10 662z" fill="#9bc795" stroke="#9bc795" stroke-width="1.51"/><path d="M-363 91l31 715 12-349z" fill="#bde3ae" stroke="#bde3ae" stroke-width="1.51"/><path d="M1664 97l122-157-433-95z" fill="#819e81" stroke="#819e81" stroke-width="1.51"/><path d="M1689 422l97-482-122 157z" fill="#789a69" stroke="#789a69" stroke-width="1.51"/><path d="M63-455l-391 104L13-185zM-257-185l-71-166-35 442z" fill="#ffffe5" stroke="#ffffe5" stroke-width="1.51"/><path d="M8 1053l182 314 175-381z" fill="#7d9c6c" stroke="#7d9c6c" stroke-width="1.51"/><path d="M22 1399l168-32L8 1053z" fill="#809d78" stroke="#809d78" stroke-width="1.51"/><path d="M1689 422l101 326-4-808z" fill="#528a56" stroke="#528a56" stroke-width="1.51"/><path d="M1828 934l-38-186-373 70z" fill="#004f2d" stroke="#004f2d" stroke-width="1.51"/><path d="M1395 1131l433-197-411-116z" fill="#004529" stroke="#004529" stroke-width="1.51"/><path d="M1169 1246l177 55 49-170z" fill="#00522e" stroke="#00522e" stroke-width="1.51"/><path d="M1143 1709l203-408-177-55z" fill="#045931" stroke="#045931" stroke-width="1.51"/><path d="M-332 806l52 267 288-20zM1786-60l-71-321-232 9z" fill="#819e81" stroke="#819e81" stroke-width="1.51"/><path d="M1483-372l232-9-471-121z" fill="#819e81" stroke="#819e81" stroke-width="1.51"/><path d="M809 1372l138 149 222-275z" fill="#1b6e3d" stroke="#1b6e3d" stroke-width="1.51"/><path d="M606 1655l341-134-138-149z" fill="#357e4a" stroke="#357e4a" stroke-width="1.51"/><path d="M265 1630l341 25 7-397z" fill="#5f905b" stroke="#5f905b" stroke-width="1.51"/><path d="M-285 1260l307 139-14-346z" fill="#819e81" stroke="#819e81" stroke-width="1.51"/><path d="M1790 748l38 186-42-994z" fill="#287845" stroke="#287845" stroke-width="1.51"/><path d="M1693 1388l135-454-433 197z" fill="#004529" stroke="#004529" stroke-width="1.51"/><path d="M-332 806l47 454 5-187z" fill="#819e81" stroke="#819e81" stroke-width="1.51"/><path d="M-280 1073l-5 187L8 1053z" fill="#819e81" stroke="#819e81" stroke-width="1.51"/><path d="M265 1630l348-372-423 109z" fill="#709663" stroke="#709663" stroke-width="1.51"/><path d="M22 1399l243 231-75-263z" fill="#7e9c6f" stroke="#7e9c6f" stroke-width="1.51"/><path d="M-9 1677l274-47-243-231z" fill="#7f9d76" stroke="#7f9d76" stroke-width="1.51"/><path d="M1346 1301l347 87-298-257z" fill="#004529" stroke="#004529" stroke-width="1.51"/><path d="M947 1521l196 188 26-463z" fill="#116336" stroke="#116336" stroke-width="1.51"/><path d="M606 1655l537 54-196-188z" fill="#217642" stroke="#217642" stroke-width="1.51"/><path d="M-9 1677l1152 32-537-54z" fill="#548b57" stroke="#548b57" stroke-width="1.51"/><path d="M1371 1672l322-284-347-87z" fill="#004529" stroke="#004529" stroke-width="1.51"/><path d="M265 1630l-274 47 615-22z" fill="#759967" stroke="#759967" stroke-width="1.51"/><path d="M-213 1561l204 116 31-278z" fill="#819e81" stroke="#819e81" stroke-width="1.51"/><path d="M-285 1260l72 301 235-162z" fill="#819e81" stroke="#819e81" stroke-width="1.51"/><path d="M1143 1709l228-37-25-371z" fill="#00542f" stroke="#00542f" stroke-width="1.51"/><path d="M1143 1709l531-11-303-26z" fill="#00492b" stroke="#00492b" stroke-width="1.51"/><path d="M1371 1672l303 26 19-310z" fill="#004529" stroke="#004529" stroke-width="1.51"/><path d="M1693 1388l-19 310 154-764z" fill="#004529" stroke="#004529" stroke-width="1.51"/></svg>